<svg xmlns="http://www.w3.org/2000/svg" viewBox="0 0 200 200">
  <!-- Star sticker -->
  <g id="star-sticker">
    <path d="M 100 20 L 110 70 L 160 70 L 120 100 L 135 150 L 100 120 L 65 150 L 80 100 L 40 70 L 90 70 Z"
          fill="currentColor"
          opacity="0.9"/>
    <path d="M 100 20 L 110 70 L 160 70 L 120 100 L 135 150 L 100 120 L 65 150 L 80 100 L 40 70 L 90 70 Z"
          fill="none"
          stroke="rgba(255,255,255,0.5)"
          stroke-width="2"/>
  </g>

  <!-- Circle sticker with corner peel -->
  <g id="circle-sticker">
    <circle cx="100" cy="100" r="40" fill="currentColor" opacity="0.95"/>
    <path d="M 130 85 Q 135 85, 138 90 L 140 100 Q 135 95, 130 95 Z"
          fill="rgba(255,255,255,0.3)"/>
  </g>

  <!-- Badge/seal sticker -->
  <g id="badge-sticker">
    <circle cx="100" cy="100" r="35" fill="none" stroke="currentColor" stroke-width="3"/>
    <circle cx="100" cy="100" r="30" fill="currentColor" opacity="0.9"/>
    <path d="M 100 70 L 105 85 L 120 85 L 110 95 L 115 110 L 100 100 L 85 110 L 90 95 L 80 85 L 95 85 Z"
          fill="rgba(255,255,255,0.8)"/>
  </g>

  <!-- Rectangle sticker with rounded corners -->
  <g id="rect-sticker">
    <rect x="60" y="80" width="80" height="40" rx="5" ry="5"
          fill="currentColor" opacity="0.95"/>
    <rect x="62" y="82" width="76" height="36" rx="4" ry="4"
          fill="none" stroke="rgba(255,255,255,0.3)" stroke-width="1"/>
  </g>
</svg>
